<svg id="Layer_1" height="512" viewBox="0 0 128 128" width="512" xmlns="http://www.w3.org/2000/svg" data-name="Layer 1"><path d="m121.5 64c0 .59-.01 1.17-.03 1.75a57.176 57.176 0 0 1 -9.67 30.21c-.65.98-1.33 1.93-2.04 2.86a57.325 57.325 0 0 1 -42.92 22.61c-.94.05-1.89.07-2.84.07s-1.9-.02-2.84-.07a57.325 57.325 0 0 1 -42.92-22.61c-.71-.93-1.39-1.88-2.04-2.86a57.176 57.176 0 0 1 -9.67-30.21c-.02-.58-.03-1.16-.03-1.75s.01-1.17.03-1.75a57.176 57.176 0 0 1 9.67-30.21c.65-.98 1.33-1.93 2.04-2.86a57.324 57.324 0 0 1 42.92-22.61c.94-.05 1.89-.07 2.84-.07s1.9.02 2.84.07a57.324 57.324 0 0 1 42.92 22.61c.71.93 1.39 1.88 2.04 2.86a57.176 57.176 0 0 1 9.67 30.21c.02.58.03 1.16.03 1.75z" fill="#4e8ed5"/><g fill="#12304c"><path d="m111.848 98.888a59.166 59.166 0 0 0 -.175-70.074c-.01-.014-.016-.029-.026-.043s-.012-.012-.018-.019a59.39 59.39 0 0 0 -14.436-13.838 1.75 1.75 0 1 0 -1.963 2.9 55.908 55.908 0 0 1 12.546 11.667 56.928 56.928 0 0 1 -13.292 6.8c-3.559-11.497-9.257-20.741-16.177-26.181a55.4 55.4 0 0 1 8.52 3.018 1.75 1.75 0 0 0 1.435-3.192 59.259 59.259 0 0 0 -71.744 18.674 1.727 1.727 0 0 0 -.164.173 1.747 1.747 0 0 0 -.2.34 59.075 59.075 0 0 0 0 69.776 1.425 1.425 0 0 0 .365.513 59.192 59.192 0 0 0 94.979-.02 1.7 1.7 0 0 0 .149-.153 1.747 1.747 0 0 0 .201-.341zm-103.554-33.138h21.224a95.362 95.362 0 0 0 3.026 22.563 60.5 60.5 0 0 0 -14.376 7.375 55.405 55.405 0 0 1 -9.874-29.938zm9.873-33.437a60.5 60.5 0 0 0 14.376 7.375 95.362 95.362 0 0 0 -3.025 22.562h-21.224a55.405 55.405 0 0 1 9.874-29.937zm14.849 33.437h2.984a1.75 1.75 0 0 0 0-3.5h-2.984a93.5 93.5 0 0 1 2.8-21.459 95.037 95.037 0 0 0 28.184 4.099 95.037 95.037 0 0 0 28.182-4.1 93.5 93.5 0 0 1 2.8 21.459h-40.065a1.75 1.75 0 0 0 0 3.5h40.07a93.451 93.451 0 0 1 -2.826 21.451 95.051 95.051 0 0 0 -28.161-4.09 95.037 95.037 0 0 0 -28.182 4.1 93.5 93.5 0 0 1 -2.802-21.46zm65.47 0h21.219a55.405 55.405 0 0 1 -9.873 29.938 60.469 60.469 0 0 0 -14.348-7.365 96.919 96.919 0 0 0 3.002-22.573zm11.369-33.45a55.674 55.674 0 0 1 9.845 29.95h-21.218a95.362 95.362 0 0 0 -3.026-22.563 60.465 60.465 0 0 0 14.399-7.387zm-18.619 5.073a91.85 91.85 0 0 1 -27.236 4.017 91.85 91.85 0 0 1 -27.236-4.017c5.264-17.336 15.498-29.123 27.236-29.123s21.972 11.787 27.236 29.123zm-41.575-27.245c-6.905 5.441-12.592 14.672-16.146 26.147a56.971 56.971 0 0 1 -13.26-6.775 55.874 55.874 0 0 1 29.406-19.372zm-29.406 88.372a56.971 56.971 0 0 1 13.26-6.774c3.554 11.474 9.24 20.706 16.146 26.147a55.874 55.874 0 0 1 -29.406-19.373zm58.245 19.326a38.265 38.265 0 0 0 7.535-8.113 1.75 1.75 0 0 0 -2.862-2.014c-5.546 7.884-12.173 12.051-19.173 12.051-11.738 0-21.972-11.787-27.236-29.123a91.85 91.85 0 0 1 27.236-4.017 91.867 91.867 0 0 1 27.205 4.008 68.345 68.345 0 0 1 -3.784 9.787 1.75 1.75 0 0 0 3.151 1.522 71.688 71.688 0 0 0 3.948-10.19 56.936 56.936 0 0 1 13.225 6.763 55.877 55.877 0 0 1 -29.245 19.326z"/><path d="m47.5 62.25h-4.125a1.75 1.75 0 0 0 0 3.5h4.125a1.75 1.75 0 0 0 0-3.5z"/></g></svg>